<svg width="28" height="32" viewBox="0 0 28 32" fill="none" xmlns="http://www.w3.org/2000/svg">
<path fill-rule="evenodd" clip-rule="evenodd" d="M23.2701 15.6932C23.1606 15.6871 23.0513 15.7071 22.9495 15.7518C22.8477 15.7964 22.756 15.8647 22.6805 15.952C22.6051 16.0392 22.5478 16.1433 22.5125 16.2571C22.4772 16.3709 22.4647 16.4918 22.476 16.6114V29.3242H16.7586V24.159C16.7655 23.9366 16.6961 23.7195 16.5642 23.5504C16.4323 23.3813 16.2475 23.2726 16.0461 23.2456H11.9083C11.6875 23.2544 11.4776 23.3526 11.319 23.5214C11.1604 23.6901 11.0645 23.9173 11.0498 24.159V29.3101H5.41398V17.0681C5.41796 16.9503 5.40052 16.8328 5.36255 16.7225C5.32463 16.6122 5.26696 16.5113 5.19298 16.4258C5.11901 16.3403 5.03022 16.2718 4.93181 16.2245C4.83339 16.1771 4.72735 16.1518 4.61989 16.1499C4.51061 16.1447 4.40156 16.1652 4.30014 16.2101C4.19872 16.255 4.10728 16.3233 4.032 16.4104C3.95671 16.4974 3.89935 16.6012 3.86378 16.7147C3.82821 16.8282 3.81524 16.9487 3.82579 17.0681V30.346C3.8212 30.4651 3.83814 30.5841 3.87562 30.696C3.9131 30.8079 3.9704 30.9106 4.04421 30.9981C4.11801 31.0856 4.20687 31.1563 4.30567 31.2059C4.40447 31.2557 4.51126 31.2834 4.61989 31.2877H11.9169C12.1217 31.2583 12.3087 31.1447 12.4401 30.97C12.5716 30.7951 12.6377 30.5722 12.6251 30.346V25.0772H15.1662V30.3413C15.1747 30.588 15.2678 30.8222 15.427 30.9968C15.5862 31.1715 15.7996 31.2736 16.0246 31.283H23.2486C23.4625 31.258 23.6608 31.1488 23.8068 30.9756C23.9528 30.8024 24.0366 30.577 24.0427 30.3413V16.6114C24.0461 16.4937 24.0282 16.3765 23.9901 16.2665C23.9519 16.1565 23.8943 16.0559 23.8204 15.9705C23.7466 15.8851 23.658 15.8166 23.5598 15.769C23.4617 15.7214 23.3559 15.6956 23.2486 15.6932H23.2701ZM4.6113 2.29293C4.83577 2.32688 5.0389 2.45681 5.17637 2.65439C5.3139 2.85196 5.37462 3.10114 5.34527 3.34762V10.3397L13.3376 1.04518C13.4109 0.937991 13.5062 0.85138 13.616 0.79245C13.7256 0.733521 13.8465 0.703952 13.9686 0.706171C14.0676 0.716444 14.1629 0.752586 14.2465 0.811568C14.3302 0.870551 14.3997 0.950658 14.4493 1.04518C19.1237 6.42227 22.3773 10.1984 27.6182 16.3807C27.7721 16.569 27.8571 16.8129 27.8571 17.0657C27.8571 17.3186 27.7721 17.5625 27.6182 17.7508C27.4607 17.8903 27.2667 17.9711 27.0645 17.9816C26.859 17.9945 26.6571 17.9183 26.5022 17.7696L13.9643 3.01332L1.34913 17.539C1.29212 17.6443 1.21108 17.7316 1.114 17.7923C1.01692 17.8529 0.907116 17.8848 0.795399 17.8848C0.683681 17.8848 0.573883 17.8529 0.476803 17.7923C0.379722 17.7316 0.298708 17.6443 0.241699 17.539C0.161318 17.4737 0.0971688 17.3873 0.0551669 17.2877C0.0131652 17.1882 -0.00534084 17.0787 0.00132932 16.9692C0.00858345 16.7169 0.0932796 16.4747 0.241699 16.2818L3.87302 12.0442V3.34762C3.84371 3.10114 3.90441 2.85196 4.0419 2.65439C4.1794 2.45681 4.38253 2.32688 4.607 2.29293H4.6113Z" fill="#194185"/>
</svg>
