<svg width="31" height="31" viewBox="0 0 31 31" fill="none" xmlns="http://www.w3.org/2000/svg">
<g clip-path="url(#clip0_391_58)">
<circle cx="15.5" cy="15.5" r="15.5" fill="black"/>
<path d="M20.5 9.94994H18.9731L18.2995 8.63075C18.1001 8.24074 17.7003 8 17.2533 8H14.7468C14.2998 8 13.9 8.24074 13.6998 8.63075L13.027 9.94994H11.5C10.6736 9.94994 10 10.6062 10 11.4125V16.2875C10 17.0938 10.6736 17.75 11.5 17.75H20.5C21.3265 17.75 22.0001 17.0938 22.0001 16.2875V11.4125C22.0001 10.6062 21.3265 9.94994 20.5 9.94994V9.94994ZM18.3333 13.5253C18.3333 14.7799 17.2863 15.8 16 15.8C14.7138 15.8 13.6668 14.7793 13.6668 13.5253C13.6668 12.2712 14.713 11.2498 16 11.2498C17.2871 11.2498 18.3333 12.2705 18.3333 13.5253Z" fill="white"/>
<path d="M14.6882 22.748C14.6665 22.748 14.644 22.7472 14.6223 22.745C10.1343 22.352 7 20.375 7 17.9375C7 17.1852 7.12222 16.6167 7.74844 15.9372C8.02901 15.6327 8.50307 15.6125 8.80821 15.893C9.11281 16.1735 9.133 16.6483 8.85243 16.9527C8.54427 17.2873 8.50005 17.4635 8.50005 17.9375C8.50005 19.4885 11.2465 20.9435 14.7528 21.2502C15.1653 21.2863 15.4713 21.6499 15.4345 22.0625C15.4007 22.4532 15.073 22.748 14.6882 22.748Z" fill="white"/>
<path d="M17.6755 22.7121C17.2983 22.7121 16.9735 22.4279 16.9308 22.0437C16.8857 21.632 17.1828 21.2615 17.5945 21.2158C21.127 20.8281 23.4999 19.304 23.4999 18.1251C23.4999 17.5348 23.3972 17.3502 23.0732 16.8568C22.846 16.5103 22.9428 16.0453 23.2884 15.8181C23.6357 15.5908 24.1007 15.6876 24.3272 16.0333C24.7458 16.6716 25 17.1305 25 18.1251C25 20.3188 21.9543 22.2456 17.7587 22.7076C17.731 22.7106 17.7033 22.7121 17.6755 22.7121Z" fill="white"/>
<path d="M15.835 21.665L13.9599 19.79C13.7994 19.6295 13.5571 19.5816 13.3472 19.6678C13.1372 19.7547 13 19.9603 13 20.1876V23.9375C13 24.1648 13.1372 24.3704 13.3472 24.4573C13.4169 24.4859 13.4897 24.5 13.5625 24.5C13.7088 24.5 13.8527 24.443 13.9599 24.3351L15.835 22.4601C16.0547 22.2403 16.0547 21.8849 15.835 21.665V21.665Z" fill="white"/>
</g>
<defs>
<clipPath id="clip0_391_58">
<rect width="31" height="31" fill="white"/>
</clipPath>
</defs>
</svg>
