<svg width="16" height="16" viewBox="0 0 16 16" fill="none" xmlns="http://www.w3.org/2000/svg">
<g clip-path="url(#clip0_5574_47927)">
<path d="M16 8C16 12.4183 12.4183 16 8 16C3.58175 16 0 12.4183 0 8C0 8.00187 8 0.00090625 8 0C12.4183 0 16 3.58175 16 8Z" fill="#0052B4"/>
<path d="M7.97852 7.99996H7.99996C7.99996 7.9927 7.99996 7.98575 7.99996 7.97852C7.99283 7.98568 7.98569 7.99282 7.97852 7.99996Z" fill="#F0F0F0"/>
<path d="M7.99975 4.17488C7.99975 2.76723 7.99975 1.84482 7.99975 0.000976562H7.99841C3.58075 0.00169531 -0.000244141 3.5831 -0.000244141 8.00094H4.17366V5.65057L6.52403 8.00094H7.97838C7.98553 7.99382 7.99266 7.98669 7.99978 7.97954C7.99978 7.44057 7.99978 6.95966 7.99978 6.52529L5.64938 4.17488H7.99975Z" fill="#F0F0F0"/>
<path d="M4.04733 1.04395C2.79611 1.75641 1.75593 2.7966 1.04346 4.04782V8.00048H3.13043V3.13095V3.13091H7.99999C7.99999 2.4727 7.99999 1.84563 7.99999 1.04395H4.04733Z" fill="#D80027"/>
<path d="M8.00013 7.01707L5.15785 4.17482H4.17407C4.17407 4.17479 4.17407 4.17482 4.17407 4.17482L8.0001 8.00085H8.00013C8.00013 8.00085 8.00013 7.32257 8.00013 7.01707Z" fill="#D80027"/>
<path d="M4.8251 9.39062L5.26417 10.3087L6.25563 10.0795L5.81164 10.9952L6.60895 11.6275L5.61623 11.8512L5.61901 12.8689L4.8251 12.2322L4.03123 12.8689L4.03401 11.8512L3.04126 11.6275L3.8386 10.9952L3.39454 10.0795L4.38607 10.3087L4.8251 9.39062Z" fill="#F0F0F0"/>
<path d="M11.9781 11.1299L12.1976 11.5889L12.6934 11.4743L12.4713 11.9322L12.87 12.2483L12.3736 12.3602L12.375 12.869L11.9781 12.5507L11.5811 12.869L11.5825 12.3602L11.0862 12.2483L11.4848 11.9322L11.2628 11.4743L11.7586 11.5889L11.9781 11.1299Z" fill="#F0F0F0"/>
<path d="M9.93564 6.26074L10.1551 6.7198L10.6509 6.60518L10.4289 7.06302L10.8275 7.37918L10.3312 7.49105L10.3325 7.99987L9.93564 7.68152L9.5387 7.99987L9.54004 7.49105L9.0437 7.37918L9.44236 7.06302L9.22036 6.60518L9.71611 6.7198L9.93564 6.26074Z" fill="#F0F0F0"/>
<path d="M11.9781 3.47852L12.1976 3.93758L12.6934 3.82298L12.4714 4.28083L12.87 4.59695L12.3736 4.70886L12.375 5.21767L11.9781 4.89933L11.5811 5.21767L11.5825 4.70886L11.0862 4.59695L11.4848 4.28083L11.2628 3.82298L11.7586 3.93758L11.9781 3.47852Z" fill="#F0F0F0"/>
<path d="M13.7616 5.56543L13.9811 6.02449L14.4768 5.90987L14.2548 6.36771L14.6535 6.68387L14.1571 6.79577L14.1585 7.30455L13.7616 6.98624L13.3646 7.30455L13.366 6.79577L12.8696 6.68387L13.2683 6.36771L13.0463 5.90987L13.542 6.02449L13.7616 5.56543Z" fill="#F0F0F0"/>
<path d="M12.4861 8L12.6588 8.53144H13.2176L12.7655 8.85991L12.9382 9.39131L12.4861 9.06288L12.034 9.39131L12.2067 8.85991L11.7546 8.53144H12.3134L12.4861 8Z" fill="#F0F0F0"/>
</g>
<defs>
<clipPath id="clip0_5574_47927">
<rect width="16" height="16" fill="white"/>
</clipPath>
</defs>
</svg>
